# xmcd
#
# Track frame offsets: 
#        150
#        16502
#        36177
#        51802
#        70460
#        91627
#        102685
#        122107
#        137165
#        150260
#        167825
#        184557
#        204215
#
# Disc length: 3051 seconds
#
# Revision: 0
# Processed by: cddbd v1.5.2PL0 Copyright (c) Steve Scherf et al.
# Submitted via: ExactAudioCopy v0.99pb3
#
DISCID=a10be90d
DTITLE=Davis and Devitt - Body of Water
DYEAR=2004
DGENRE=Blues
TTITLE0=Body Of Water
TTITLE1=Dry As A Bone
TTITLE2=You're Not The Boss Of Me
TTITLE3=Falling Away
TTITLE4=You Let Love Go
TTITLE5=More Than Rain
TTITLE6=Stars In Your Eyes
TTITLE7=Anymore
TTITLE8=Digging Myself Up
TTITLE9=Until This Journey's Thru
TTITLE10=Longest Day Of The Year
TTITLE11=Vision
TTITLE12=Calder
EXTD=
EXTT0=
EXTT1=
EXTT2=
EXTT3=
EXTT4=
EXTT5=
EXTT6=
EXTT7=
EXTT8=
EXTT9=
EXTT10=
EXTT11=
EXTT12=
PLAYORDER=
